<svg height="480pt" viewBox="-8 0 480 480" width="480pt" xmlns="http://www.w3.org/2000/svg" xmlns:xlink="http://www.w3.org/1999/xlink"><linearGradient id="lg1"><stop offset="0" stop-color="#e93e3a"/><stop offset=".35" stop-color="#ed683c"/><stop offset=".7" stop-color="#f3903f"/><stop offset="1" stop-color="#fdc70c"/></linearGradient><linearGradient id="linear0" gradientUnits="userSpaceOnUse" x1="232" x2="232" xlink:href="#lg1" y1="481.056" y2="-13.288"/><linearGradient id="linear1" gradientUnits="userSpaceOnUse" x1="88" x2="88" xlink:href="#lg1" y1="481.056" y2="-13.288"/><linearGradient id="linear2" gradientUnits="userSpaceOnUse" x1="184" x2="184" xlink:href="#lg1" y1="481.056" y2="-13.288"/><linearGradient id="linear3" gradientUnits="userSpaceOnUse" x1="280" x2="280" xlink:href="#lg1" y1="481.056" y2="-13.288"/><linearGradient id="linear4" gradientUnits="userSpaceOnUse" x1="376" x2="376" xlink:href="#lg1" y1="481.056" y2="-13.288"/><path d="m424 96h-80v-24c0-13.253906-10.746094-24-24-24h-32v-24c0-13.253906-10.746094-24-24-24h-64c-13.253906 0-24 10.746094-24 24v24h-32c-13.253906 0-24 10.746094-24 24v24h-80c-22.082031.027344-39.9726562 17.917969-40 40v304c.0273438 22.082031 17.917969 39.972656 40 40h384c22.082031-.027344 39.972656-17.917969 40-40v-304c-.027344-22.082031-17.917969-39.972656-40-40zm-232-72c0-4.417969 3.582031-8 8-8h64c4.417969 0 8 3.582031 8 8v24h-80zm-56 48c0-4.417969 3.582031-8 8-8h176c4.417969 0 8 3.582031 8 8v48c0 4.417969-3.582031 8-8 8h-176c-4.417969 0-8-3.582031-8-8zm-96 40h80v8c0 13.253906 10.746094 24 24 24h176c13.253906 0 24-10.746094 24-24v-8h80c13.253906 0 24 10.746094 24 24v40h-432v-40c0-13.253906 10.746094-24 24-24zm384 352h-384c-13.253906 0-24-10.746094-24-24v-248h432v248c0 13.253906-10.746094 24-24 24zm0 0" fill="url(#linear0)"/><path d="m72 232h32v24h16v-24c0-8.835938-7.164062-16-16-16h-32c-8.835938 0-16 7.164062-16 16v24h16zm0 0" fill="url(#linear1)"/><path d="m200 216h-32c-8.835938 0-16 7.164062-16 16v32c0 8.835938 7.164062 16 16 16h32c8.835938 0 16-7.164062 16-16v-32c0-8.835938-7.164062-16-16-16zm-32 48v-32h32v32zm0 0" fill="url(#linear2)"/><path d="m296 216h-32c-8.835938 0-16 7.164062-16 16v32c0 8.835938 7.164062 16 16 16h32c8.835938 0 16-7.164062 16-16v-32c0-8.835938-7.164062-16-16-16zm-32 48v-32h32v32zm0 0" fill="url(#linear3)"/><path d="m392 216h-32c-8.835938 0-16 7.164062-16 16v32c0 8.835938 7.164062 16 16 16h32c8.835938 0 16-7.164062 16-16v-32c0-8.835938-7.164062-16-16-16zm-32 48v-32h32v32zm0 0" fill="url(#linear4)"/><path d="m200 296h-32c-8.835938 0-16 7.164062-16 16v32c0 8.835938 7.164062 16 16 16h32c8.835938 0 16-7.164062 16-16v-32c0-8.835938-7.164062-16-16-16zm-32 48v-32h32v32zm0 0" fill="url(#linear2)"/><path d="m296 296h-32c-8.835938 0-16 7.164062-16 16v32c0 8.835938 7.164062 16 16 16h32c8.835938 0 16-7.164062 16-16v-32c0-8.835938-7.164062-16-16-16zm-32 48v-32h32v32zm0 0" fill="url(#linear3)"/><path d="m392 296h-32c-8.835938 0-16 7.164062-16 16v32c0 8.835938 7.164062 16 16 16h32c8.835938 0 16-7.164062 16-16v-32c0-8.835938-7.164062-16-16-16zm-32 48v-32h32v32zm0 0" fill="url(#linear4)"/><path d="m200 376h-32c-8.835938 0-16 7.164062-16 16v32c0 8.835938 7.164062 16 16 16h32c8.835938 0 16-7.164062 16-16v-32c0-8.835938-7.164062-16-16-16zm-32 48v-32h32v32zm0 0" fill="url(#linear2)"/><path d="m296 376h-32c-8.835938 0-16 7.164062-16 16v32c0 8.835938 7.164062 16 16 16h32c8.835938 0 16-7.164062 16-16v-32c0-8.835938-7.164062-16-16-16zm-32 48v-32h32v32zm0 0" fill="url(#linear3)"/><path d="m392 376h-32c-8.835938 0-16 7.164062-16 16v32c0 8.835938 7.164062 16 16 16h32c8.835938 0 16-7.164062 16-16v-32c0-8.835938-7.164062-16-16-16zm-32 48v-32h32v32zm0 0" fill="url(#linear4)"/><g fill="url(#linear1)"><path d="m88 264c-30.914062.035156-55.964844 25.085938-56 56 0 19.71875 14.902344 43.3125 28.574219 60.800781-2.9375 2.984375-4.582031 7.007813-4.574219 11.199219v32c0 8.835938 7.164062 16 16 16h32c8.835938 0 16-7.164062 16-16v-32c.007812-4.191406-1.636719-8.214844-4.574219-11.199219 13.671875-17.488281 28.574219-41.082031 28.574219-60.800781-.035156-30.914062-25.085938-55.964844-56-56zm0 16c22.082031.027344 39.972656 17.917969 40 40 0 20.527344-25.175781 52.257812-40 68.40625-14.824219-16.148438-40-47.878906-40-68.40625.027344-22.082031 17.917969-39.972656 40-40zm16 144h-32v-29.425781c5.105469 5.769531 9.03125 9.769531 10.34375 11.082031 3.125 3.121094 8.1875 3.121094 11.3125 0 1.3125-1.3125 5.238281-5.3125 10.34375-11.082031zm0 0"/><path d="m112 320c0-13.253906-10.746094-24-24-24s-24 10.746094-24 24 10.746094 24 24 24 24-10.746094 24-24zm-32 0c0-4.417969 3.582031-8 8-8s8 3.582031 8 8-3.582031 8-8 8-8-3.582031-8-8zm0 0"/></g></svg>