<svg id="Capa_1" enable-background="new 0 0 508 508" height="512" viewBox="0 0 508 508" width="512" xmlns="http://www.w3.org/2000/svg"><g><g id="COLORS_43_"><path d="m7.5 172.901h493v318h-493z" fill="#ffb655"/><path d="m480.5 172.9v298h-473v20h493v-318z" fill="#ff7956"/><path d="m470.5 406.693v-149.585c-29.938 0-54.207-24.27-54.207-54.207h-324.586c0 29.938-24.269 54.207-54.207 54.207v149.585c29.938 0 54.207 24.269 54.207 54.207h324.585c.001-29.937 24.27-54.207 54.208-54.207z" fill="#71e4bf"/><g><path d="m437.617 245.985c-12.958-9.905-21.324-25.515-21.324-43.084h-17.011c2.837 20.953 18.213 37.924 38.335 43.084z" fill="#00dba8"/><path d="m450.5 253.282v136.998c-28.555 0-51.703 23.148-51.703 51.703h-310.489c2.194 5.89 3.399 12.262 3.399 18.917h324.585c0-29.938 24.269-54.207 54.207-54.207v-149.585c-7.065 0-13.809-1.367-19.999-3.826z" fill="#0ea8b2"/></g><circle cx="254" cy="51.068" fill="#ffb655" r="33.969"/><path d="m258.34 17.385c5.955 6.119 9.629 14.47 9.629 23.684 0 18.76-15.209 33.969-33.969 33.969-1.472 0-2.918-.104-4.34-.286 6.171 6.341 14.793 10.286 24.34 10.286 18.761 0 33.969-15.208 33.969-33.969 0-17.29-12.919-31.552-29.629-33.684z" fill="#ff7956"/></g><g id="LINES_42_"><path d="m188.687 165.401h15v15h-15z"/><path d="m419.481 165.401-128.334-95.929c2.761-5.55 4.322-11.797 4.322-18.404 0-22.866-18.603-41.469-41.469-41.469s-41.469 18.603-41.469 41.469c0 6.607 1.561 12.854 4.322 18.404l-128.334 95.929h-88.519v333h508v-333zm-165.481-140.802c14.595 0 26.469 11.874 26.469 26.469 0 14.596-11.874 26.47-26.469 26.47s-26.469-11.874-26.469-26.47c0-14.595 11.874-26.469 26.469-26.469zm239 458.802h-478v-303h144.687 14v-15h-14-46.115l112.273-83.923c7.401 6.857 17.294 11.06 28.156 11.06s20.755-4.203 28.156-11.06l112.273 83.923h-160.743-15v15h15 259.313z"/><path d="m84.207 195.401v7.5c0 25.754-20.953 46.707-46.707 46.707h-7.5v164.586h7.5c25.754 0 46.707 20.953 46.707 46.707v7.5h236.479v-15h-221.932c-3.412-28.044-25.71-50.342-53.754-53.754v-135.492c28.044-3.412 50.342-25.71 53.754-53.754h310.492c3.412 28.044 25.71 50.342 53.754 53.754v135.492c-28.044 3.412-50.342 25.71-53.754 53.754h-43.56v15h58.106v-7.5c0-25.754 20.953-46.707 46.707-46.707h7.5v-164.586h-7.5c-25.754 0-46.707-20.953-46.707-46.707v-7.5z"/><path d="m335.687 453.401h15v15h-15z"/><g fill="#fff"><path d="m47.964 209.401h15v15h-15z"/><path d="m449.939 209.401h15v15h-15z"/><path d="m254.464 40.016h15v15h-15z"/><path d="m47.964 438.401h15v15h-15z"/><path d="m449.939 438.401h15v15h-15z"/></g><path d="m162.154 367.448v-71.094h-14.648v28.808h-28.565v-28.808h-14.648v71.094h14.648v-30.469h28.565v30.469z"/><path d="m218.868 299.65c-4.606-2.848-9.872-4.272-15.796-4.272-5.925 0-11.19 1.425-15.796 4.272-4.606 2.849-8.171 6.934-10.693 12.256-2.523 5.322-3.784 11.483-3.784 18.481v3.516c.032 6.836 1.318 12.883 3.857 18.14 2.539 5.258 6.119 9.302 10.742 12.134 4.622 2.832 9.879 4.248 15.771 4.248 5.957 0 11.238-1.432 15.845-4.297 4.605-2.864 8.146-6.934 10.62-12.207s3.711-11.409 3.711-18.408v-3.174c0-6.966-1.262-13.11-3.784-18.433-2.523-5.323-6.087-9.408-10.693-12.256zm-.366 34.106c-.033 7.39-1.367 13.013-4.004 16.87s-6.413 5.786-11.328 5.786c-5.014 0-8.854-2.002-11.523-6.006-2.67-4.004-4.004-9.635-4.004-16.895v-3.467c.032-7.389 1.383-12.996 4.053-16.821 2.669-3.824 6.461-5.737 11.377-5.737 4.947 0 8.756 1.938 11.426 5.811 2.669 3.874 4.004 9.538 4.004 16.992v3.467z"/><path d="m271.578 367.448v-59.229h21.777v-11.865h-57.91v11.865h21.485v59.229z"/><path d="m349.264 308.219v-11.865h-47.559v71.094h47.656v-11.768h-33.007v-19.043h28.125v-11.475h-28.125v-16.943z"/><path d="m357.955 296.354v71.094h45.752v-11.768h-31.103v-59.326z"/><path d="m379.361 255.683h15v15h-15z"/><path d="m104.293 255.683h260.068v15h-260.068z"/><path d="m104.293 393.119h299.414v15h-299.414z"/></g></g></svg>